<svg width="52" height="52" viewBox="0 0 52 52" fill="none" xmlns="http://www.w3.org/2000/svg">
<g clip-path="url(#clip0_12509_34964)">
<g clip-path="url(#clip1_12509_34964)">
<path d="M37.2637 37.6719C37.2637 37.6719 41.3811 38.6785 41.634 39.1027C41.887 39.5268 37.6622 45.5918 37.6622 45.5918L33.6397 46.858L32.0332 44.8954L37.2637 37.6719Z" fill="#E9B05B"/>
<path d="M34.0762 44.8511L49.6791 22.0093L50.1851 22.3385L35.6131 45.8514L34.0762 44.8511Z" fill="#4D2A40"/>
<path d="M41.381 38.0707C41.381 38.0707 38.3895 39.1786 38.3578 40.0523C38.3094 40.2106 38.3063 40.3793 38.3488 40.5393C38.3912 40.6993 38.4777 40.8442 38.5982 40.9576C38.5982 40.9576 36.9664 41.4071 37.3333 42.4897C37.4008 42.7942 37.5571 43.0718 37.7823 43.2874C37.7823 43.2874 36.3909 43.8761 36.568 44.332C36.6965 44.6335 36.886 44.9051 37.1245 45.1296C37.1245 45.1296 35.2841 45.5475 35.5623 45.9653C35.8406 46.3832 39.2117 47.2885 39.939 45.7944C40.3334 45.5886 40.6684 45.2849 40.912 44.9125C41.1556 44.5401 41.2997 44.1113 41.3304 43.6672C41.3304 43.6672 42.2349 42.4897 42.0262 41.4767C42.0135 41.4767 44.8406 37.7921 41.381 38.0707Z" fill="#FFCB7E"/>
<path d="M37.4156 39.1913C39.5091 39.1913 41.4191 36.2855 41.4191 36.2855C41.4191 36.2855 37.6243 35.9942 37.0614 35.8233C36.4985 35.6524 33.5133 39.2356 32.476 40.2929C31.6843 41.257 31.0229 42.3213 30.5091 43.4584L28.0994 44.8005C29.1699 46.8394 30.1368 48.9313 30.9961 51.0681C33.2793 48.8523 34.7909 47.3075 34.7909 47.3075H34.7529L38.8513 46.2123L36.7642 45.9654L33.7916 46.3389L33.0959 45.6235C35.9925 44.0978 37.4156 39.1913 37.4156 39.1913Z" fill="#FFCB7E"/>
<path d="M28.2132 44.3701L14.1851 51.1315V67.0094C21.1422 63.2109 32.4317 50.4098 32.4317 50.4098L28.2132 44.3701Z" fill="#5E5E5E"/>
</g>
<path d="M6.70179 36.7263C8.6296 36.7263 10.1924 35.1635 10.1924 33.2357C10.1924 31.3079 8.6296 29.7451 6.70179 29.7451C4.77398 29.7451 3.21118 31.3079 3.21118 33.2357C3.21118 35.1635 4.77398 36.7263 6.70179 36.7263Z" fill="#F0BD70"/>
<path d="M6.7019 36.0283H18.57V53.3906C18.57 53.3906 16.0267 54.8776 12.6359 54.8776C9.24516 54.8776 6.7019 52.4502 6.7019 52.4502V36.0283Z" fill="#F0BD70"/>
<path d="M18.5697 45.0114C18.5697 48.9586 17.9539 48.5844 13.9502 48.5844C9.9465 48.5844 8.09927 45.3849 8.09927 41.4377C8.09927 37.4905 7.94708 33.9336 11.178 33.9336C20.315 34.2827 18.5697 41.0642 18.5697 45.0114Z" fill="#E9B05B"/>
<path d="M26.17 32.6076C26.17 38.8362 28.7433 46.4953 17.5231 46.4953C6.30289 46.4953 6.30289 38.8362 6.30289 32.6076C4.60786 25.2075 4.95692 16.481 16.4759 16.481C27.9949 16.481 26.17 26.3782 26.17 32.6076V32.6076Z" fill="#FFCB7E"/>
<path fill-rule="evenodd" clip-rule="evenodd" d="M26.2264 30.0823C26.8059 29.7553 27.2495 29.2321 27.4773 28.6069C27.7052 27.9818 27.7023 27.2958 27.4691 26.6727C28.1064 26.3654 28.6033 25.8278 28.8595 25.1683C29.1156 24.5088 29.1119 23.7767 28.8491 23.1198C28.5862 22.463 28.0839 21.9304 27.4435 21.6296C26.8031 21.3289 26.0725 21.2824 25.3992 21.4996C26.3884 24.0645 26.3158 27.2367 26.2264 30.0823Z" fill="#47280B"/>
<path fill-rule="evenodd" clip-rule="evenodd" d="M19.4753 23.2945C18.8391 23.8537 18.0207 24.1615 17.1736 24.1601C16.4011 24.1614 15.6501 23.9052 15.0394 23.432C14.5863 23.885 14.0483 24.2441 13.4561 24.4889C12.864 24.7336 12.2294 24.8591 11.5886 24.8582C11.1049 24.8586 10.6237 24.787 10.161 24.646C9.97901 24.8452 9.76928 25.017 9.53826 25.1563C9.81308 25.4834 10.0092 25.8691 10.1116 26.2838C10.214 26.6985 10.2198 27.1312 10.1287 27.5485C10.0376 27.9658 9.85198 28.3567 9.5861 28.6911C9.32023 29.0254 8.9812 29.2943 8.59509 29.477C8.71032 29.6349 8.77908 29.8218 8.79359 30.0167C8.8081 30.2116 8.76779 30.4066 8.67721 30.5798C8.58663 30.753 8.4494 30.8973 8.28104 30.9966C8.11268 31.0958 7.91991 31.146 7.72454 31.1413C7.3823 31.7368 6.83263 32.1853 6.18058 32.401C5.52853 32.6167 4.81985 32.5846 4.19 32.3108C3.56014 32.0369 3.0533 31.5405 2.76635 30.9166C2.4794 30.2926 2.43247 29.5847 2.63454 28.9283C2.37439 28.6693 2.16805 28.3614 2.02739 28.0223C1.88673 27.6832 1.81453 27.3197 1.81494 26.9526C1.81494 26.1805 2.1284 25.4817 2.63454 24.9769C2.4997 24.5359 2.47618 24.0684 2.56608 23.6161C2.65599 23.1637 2.85651 22.7407 3.14975 22.3848C2.78657 21.7449 2.57253 21.0312 2.52359 20.297C2.47464 19.5628 2.59205 18.827 2.86706 18.1445C3.14207 17.462 3.56759 16.8504 4.11189 16.3553C4.6562 15.8602 5.30525 15.4943 6.01065 15.2849C5.97437 14.7832 6.07428 14.281 6.29983 13.8314C6.52538 13.3817 6.86819 13.0014 7.29205 12.7305C7.7159 12.4596 8.20506 12.3083 8.70784 12.2924C9.21061 12.2765 9.70833 12.3968 10.1484 12.6404C10.5773 11.8974 11.1943 11.2805 11.9373 10.8517C12.6804 10.4229 13.5232 10.1973 14.3811 10.1977C15.3396 10.1977 16.2339 10.4735 16.9886 10.951C17.507 10.3926 18.1576 9.97361 18.8805 9.73275C19.6033 9.4919 20.3752 9.43689 21.1249 9.57278C21.8746 9.70868 22.5781 10.0311 23.1704 10.5104C23.7628 10.9896 24.2249 11.6103 24.5143 12.3151C24.8837 12.363 25.2397 12.4842 25.5614 12.6717C25.8832 12.8593 26.1642 13.1092 26.3879 13.407C26.6116 13.7047 26.7735 14.0442 26.8641 14.4054C26.9546 14.7667 26.972 15.1423 26.9152 15.5104C28.2102 16.4696 29.0417 17.9552 29.0417 19.6223C29.0417 22.514 26.541 24.8582 23.4567 24.8582C21.8978 24.8582 20.4883 24.2593 19.4753 23.2945V23.2945Z" fill="#47280B"/>
</g>
<defs>
<clipPath id="clip0_12509_34964">
<path d="M0 26C0 15.7045 0 10.5568 2.41994 6.83041C3.56482 5.06746 5.06746 3.56482 6.83041 2.41994C10.5568 0 15.7045 0 26 0V0C36.2955 0 41.4432 0 45.1696 2.41994C46.9325 3.56482 48.4352 5.06746 49.5801 6.83041C52 10.5568 52 15.7045 52 26V26C52 36.2955 52 41.4432 49.5801 45.1696C48.4352 46.9325 46.9325 48.4352 45.1696 49.5801C41.4432 52 36.2955 52 26 52H0V26Z" fill="white"/>
</clipPath>
<clipPath id="clip1_12509_34964">
<rect width="36" height="45" fill="white" transform="translate(14.1851 22.0093)"/>
</clipPath>
</defs>
</svg>
